PathFileType	4	(X/Y/Z)	C:/Users/beibeiliu/ov580/test_trc/User3\out9_training_dense_right.trc
DataRate	CameraRate	NumFrames	NumMarkers	Units	OrigDataRate	OrigDataStartFrame	OrigNumFrames
120	120	23	19	mm	120	1	500
Frame#	Time	ThumbCMC			ThumbMCP			ThumbIP			ThumbTip			IndexMCP			IndexPIP			IndexTip			MiddleMCP			MiddlePIP			MiddleTip			RingMCP			RingPIP			RingTip			PinkyMCP			PinkyPIP			PinkyTip			BackHand1			BackHand2			BackHand3	
		X0	Y0	Z0	X1	Y1	Z1	X2	Y2	Z2	X3	Y3	Z3	X4	Y4	Z4	X5	Y5	Z5	X6	Y6	Z6	X7	Y7	Z7	X8	Y8	Z8	X9	Y9	Z9	X10	Y10	Z10	X11	Y11	Z11	X12	Y12	Z12	X13	Y13	Z13	X14	Y14	Z14	X15	Y15	Z15	X16	Y16	Z16	X17	Y17	Z17	X18	Y18	Z18	
0	0	131.965	31.9385	98.1727	111.907	21.4151	69.8365	107.708	11.9623	40.1208	112.905	2.31131	18.4698	146.736	51.0943	22.9108	140.913	40.1576	-7.2732	132.972	26.4571	-25.7276	172.738	49.8592	18.0013	166.117	42.4744	-11.6266	162.539	19.25	-37.7892	187.311	40.7341	24.6811	187.017	32.6987	-3.60508	184.462	10.6746	-25.247	203.21	26.5221	38.0092	206.959	16.3331	14.2649	204.633	-1.93341	-2.15385	189.731	48.6396	77.3244	190.28	49.1712	108.757	158.436	56.6152	93.3336	
1	0.00833333	130.539	32.8743	93.0878	116.248	21.4542	71.5625	109.705	12.6629	39.2472	108.781	1.42843	19.3151	146.823	50.5145	22.956	139.069	42.1514	-7.5288	136.282	22.9686	-27.6912	169.183	50.3831	18.8711	165.001	40.5739	-15.177	161.401	18.015	-39.3321	184.913	41.2318	22.2684	191.155	31.9475	-1.00121	182.675	11.1496	-24.9998	202.41	25.5598	38.4649	206.473	14.7373	13.1652	198.433	-3.38423	-3.31603	189.556	47.994	77.0137	190.682	47.9794	107.851	158.502	58.1351	90.0511	
2	0.0166667	129.24	31.7991	98.4706	117.184	20.8109	69.4072	108.147	11.9064	40.0372	111.977	2.38073	19.3972	147.157	50.1589	22.7134	138.64	43.8171	-4.07705	137.442	25.4496	-25.6821	168.985	49.9354	13.8238	164.584	40.6334	-14.6884	161.418	16.1821	-39.7864	187.481	40.2435	23.5456	186.848	33.0811	-0.942168	183.258	11.1818	-23.5794	202.651	26.7888	36.8598	206.466	14.8621	15.6584	200.431	-1.59822	-1.09645	190.476	48.1186	75.9086	193.966	48.3212	105.181	160.458	57.5927	91.682	
3	0.025	128.524	31.9864	95.2923	114.409	20.4721	71.2217	109.545	12.2019	38.4448	110.898	1.33993	17.2629	145.129	51.3577	24.393	138.926	42.0252	-7.75988	138.969	24.9097	-27.1719	173.014	49.6142	15.9189	168.63	39.4623	-15.499	164.432	17.0754	-38.12	186.121	42.1262	21.8744	187.866	31.7931	-4.99278	182.031	11.2002	-23.9439	202.411	27.2773	37.903	205.523	17.083	16.7672	198.693	-5.08008	-3.09828	188.023	50.8285	75.9592	191.926	46.5812	107.657	156.521	57.6687	88.0461	
4	0.0333333	127.809	33.2898	93.7718	116.009	21.0815	70.0986	109.076	12.601	39.498	112.569	1.76595	16.7547	147.536	51.4992	20.5754	139.76	44.8957	-5.768	139.995	25.6252	-26.4723	168.845	51.2805	19.1505	166.735	39.949	-15.2892	161.955	20.0829	-37.9007	185.769	40.7223	26.6354	184.986	31.3424	-5.36619	181.674	9.14779	-25.0118	203.723	25.9784	40.1327	203.778	14.7777	12.3084	196.433	-6.96867	-1.33801	188.682	49.5473	78.9477	195.259	47.9597	107.631	161.904	56.307	91.699	
5	0.0416667	128.901	32.6953	92.5676	118.523	20.808	69.659	110.657	11.5767	43.8801	112.258	1.86499	20.2762	144.885	50.9572	21.8699	144.109	41.748	-7.32701	134.088	24.39	-29.0926	171.668	49.9228	18.7723	169.909	41.153	-12.6251	161.709	20.6316	-36.6736	184.841	40.0902	22.8412	188.268	29.9144	-2.99864	179.671	8.76434	-20.704	204.57	24.7759	36.2272	202.532	15.5329	15.1668	195.588	-10.5333	-2.15749	193.118	47.415	75.9332	192.763	47.1755	104.545	162.118	56.4613	87.5758	
6	0.05	131.202	31.373	93.719	114.768	20.683	70.5251	106.822	11.2836	40.3255	108.787	0.0177167	19.3791	145.975	50.2445	21.8366	138.631	42.3011	-7.64725	139.134	23.9882	-27.6283	168.942	50.7055	17.6606	167.327	41.0651	-12.4919	161.931	18.4899	-37.7005	188.687	38.5014	22.6886	188.537	26.9475	-2.78407	181.987	4.13452	-19.4754	202.012	24.8652	39.1284	204.174	10.1537	14.0467	193.585	-13.3721	0.534804	189.796	49.283	78.8686	190.354	47.3786	106.882	159.649	56.1488	88.3316	
7	0.0583333	129.6	31.2145	97.788	115.259	20.6568	70.148	107.962	11.1353	41.6	109.763	0.754395	17.7157	144.128	51.5624	21.2522	141.467	40.328	-8.74366	136.424	22.7526	-29.806	170.799	49.3098	15.7797	167.314	39.9074	-13.7882	164.246	14.9311	-40.4661	189.183	36.8323	21.8797	189.238	24.0713	-3.43165	179.161	2.92511	-18.6359	202.793	24.9042	40.2153	203.157	12.7638	16.4298	195.241	-13.5229	2.12513	189.495	51.1119	74.4313	191.17	48.3326	108.652	157.467	57.5726	91.2193	
8	0.0666667	132.492	31.2735	93.0343	115.274	20.0145	70.645	109.574	11.0127	43.9291	109.149	-0.0465925	20.3299	146.084	50.0205	20.3937	140.339	42.1453	-7.68996	138.158	25.6954	-26.3954	171.606	49.3854	17.2705	168.106	38.2465	-15.3292	162.46	19.7964	-36.1921	186.434	38.071	26.03	186.709	25.559	-0.875163	179.7	-2.17459	-18.5172	204.104	24.0426	38.4628	200.951	10.0747	15.4399	196.518	-14.6392	6.52393	193.613	49.6308	76.2258	194.234	47.1042	105.737	160.723	55.5503	92.0402	
9	0.075	129.718	31.6641	97.8483	115.36	19.283	69.9971	108.13	11.1528	43.6307	109.833	0.915544	18.2851	148.236	50.0384	20.7782	138.893	43.2688	-4.15402	136.749	22.9394	-27.4437	168.499	50.7497	14.9092	167.543	38.9891	-14.9714	161.341	20.4415	-37.3321	187.297	37.499	25.9858	185.473	25.5536	-0.722898	178.464	-0.616305	-17.1776	206.052	22.7884	38.285	202.262	9.28718	15.7318	191.874	-13.0464	4.77434	188.055	47.8653	78.6676	193.813	46.1032	104.769	162.825	56.5721	93.0649	
10	0.0833333	133.034	31.6429	94.7668	113.881	20.2655	67.9015	106.005	9.67642	41.4643	111.73	-0.517166	17.8322	146.259	50.3466	24.2052	138.806	40.5458	-7.72936	139.937	24.2489	-26.254	171.026	48.7525	15.6793	170.551	40.3746	-12.1357	163.154	18.4916	-37.0941	188.556	36.021	21.9252	186.499	24.117	-1.96114	178.609	-1.34641	-17.432	206.069	21.2171	37.6402	201.422	9.16009	15.349	189.916	-16.0928	3.28785	189.057	47.2886	79.9544	193.514	46.8557	108.421	161.966	53.7779	92.8917	
11	0.0916667	131.557	30.1794	98.3107	118.981	19.9165	70.1531	108.514	9.99988	38.1882	111.101	-1.13784	15.3166	144.894	49.5214	21.0535	141.463	40.2371	-7.87863	137.107	21.3633	-28.2122	168.609	48.8381	18.1281	168.625	39.3407	-14.3848	159.568	18.6625	-38.8987	187.796	35.7718	21.8487	186.934	22.447	-2.27768	175.86	-4.08726	-18.0055	200.825	22.3198	33.6419	200.509	6.27844	12.0915	191.501	-16.8852	3.14552	191.742	46.6649	73.8817	193.289	45.3379	105.719	158.722	54.7771	88.0487	
12	0.1	129.316	31.1986	96.7298	117.862	19.9908	69.1449	108.919	10.0341	43.0247	110.464	0.203759	19.1564	144.794	50.9532	18.4379	142.077	40.6012	-7.99962	134.779	25.4187	-25.8798	168.609	49.4174	12.7813	169.938	36.6237	-16.2067	162.338	16.8066	-38.5092	186.351	35.661	20.3119	187.184	19.5871	-4.94569	174.489	-3.15706	-18.9047	203.471	21.8998	33.6144	199.224	7.90958	12.8609	188.389	-15.1722	3.12616	190.498	48.8663	74.9984	192.918	44.5633	104.417	159.757	56.6078	91.4814	
13	0.108333	133.179	30.5989	94.205	116.703	19.0566	68.5927	110.429	10.8745	41.6579	109.845	-0.35688	20.6394	148.088	49.0038	21.9904	143.428	40.7224	-7.47213	136.097	21.7387	-29.8442	173.264	47.9199	17.6745	170.039	39.173	-12.614	162.915	15.2791	-40.1622	188.909	34.3947	19.8369	182.349	22.7473	-2.77536	177.937	-1.89636	-16.4658	205.097	21.0879	37.6208	200.181	5.01158	13.1222	189.049	-13.2543	5.12224	189.555	47.2973	78.4512	192.919	44.9623	103.853	158.764	56.5419	91.938	
14	0.116667	130.631	30.4109	94.2575	112.877	18.7842	70.2661	108.747	10.6647	41.6509	110.907	0.296295	15.1234	145.285	50.3147	18.3954	142.55	39.0434	-8.90329	134.963	23.9027	-27.7591	168.021	48.3087	16.0064	169.739	39.239	-11.612	161.329	16.7219	-39.3268	189.137	33.9833	21.7942	184.627	19.3605	-5.1252	174.861	-6.13383	-17.5953	202.783	21.0491	37.7436	203.856	6.12038	14.9879	188.028	-18.0401	4.93894	192.126	46.1345	77.1222	190.559	45.9322	106.213	158.715	54.5568	88.2552	
15	0.125	128.78	31.2306	93.9174	115.279	18.6513	69.52	107.095	10.1605	42.0698	110.144	0.135465	19.2446	144.095	49.9444	19.4068	138.75	38.9036	-8.76465	133.048	23.6687	-28.1294	168.941	47.5307	13.9497	164.621	38.0845	-15.2155	159.247	18.6232	-38.6727	184.181	34.8143	20.8764	188.135	20.503	-1.88343	177.738	-6.79446	-17.1377	203.111	20.8174	36.8734	202.024	5.36783	15.3805	188.527	-17.5252	5.58092	193.428	46.8761	78.3138	194.421	45.721	104.265	158.922	53.8852	91.8341	
16	0.133333	132.133	30.1951	94.7491	113.84	19.1382	68.2109	110.41	10.7457	38.5518	111.026	-0.36048	16.7241	144.13	50.0153	18.4518	137.346	40.6889	-7.77848	136.294	21.816	-29.7463	168.383	49.2479	17.1568	165.511	39.7358	-12.7663	164.294	17.8555	-37.4029	184.969	35.1525	25.2882	184.421	19.0157	-3.6744	175.408	-7.05649	-17.4516	203.909	21.3729	39.1299	198.793	4.6475	14.0771	186.761	-18.2534	6.00253	191.354	48.0119	78.7652	193.925	46.0449	107.756	159.787	53.6171	92.5489	
17	0.141667	128.707	31.9149	93.1396	116.991	19.089	65.6432	106.378	9.71232	41.2561	108.566	0.189647	19.2776	146.259	49.9774	18.1106	140.318	40.689	-8.3725	135.79	23.5646	-27.4991	170.443	47.9571	14.0876	166.97	37.9109	-15.6572	159.14	18.1203	-39.6362	183.563	35.724	21.7269	185.379	17.0381	-4.63996	174.416	-4.62252	-16.235	201.028	22.1923	34.9563	199.088	4.53552	13.6331	191.903	-18.6347	5.04801	192.105	48.2201	78.1695	192.84	46.2939	109.356	156.369	55.0343	92.0821	
18	0.15	125.957	32.1345	97.4546	115.009	20.0208	66.3237	104.822	9.78962	42.1451	106.453	0.202951	17.3186	142.405	51.1155	21.2387	139.124	42.856	-5.64713	136.403	23.0434	-29.5667	167.019	49.8629	13.6455	167.529	40.1547	-11.4591	162.662	16.7227	-39.2649	188.037	34.4097	25.3596	184.686	21.548	-1.56688	174.271	-5.99205	-15.7278	201.393	22.0654	39.0202	197.92	5.19167	13.6367	191.515	-16.2076	6.84192	187.511	49.1956	76.6684	188.665	45.0706	107.001	158.969	55.7311	91.535	
19	0.158333	126.75	32.5974	94.3093	117.529	20.6157	65.9169	108.601	10.6911	42.8686	107.843	0.285855	17.8008	143.131	50.4736	23.6389	137.581	43.3537	-6.2026	131.415	27.4554	-26.872	171.792	48.2755	14.2066	167.169	39.2609	-13.7041	160.412	17.8277	-40.465	186.556	33.8645	20.8232	181.776	20.4062	-3.24297	173.235	-8.28681	-16.3605	199.56	21.6356	39.6114	199.658	6.56398	15.6241	185.824	-16.0946	3.30094	187.48	49.4001	74.6979	191.272	46.3326	104.403	159.739	55.3564	93.3766	
20	0.166667	130.083	32.1055	92.6889	116.076	20.7592	69.6649	104.101	10.7078	40.8574	112.09	1.91416	18.3648	147.182	50.7905	21.421	136.626	45.2181	-6.21849	132.03	28.9251	-27.6378	168.059	50.7506	18.156	167.454	42.979	-11.6159	157.588	20.7439	-42.013	185.209	35.142	21.304	181.591	19.6745	-4.00885	178.032	-5.42081	-15.5427	203.861	20.6439	36.9482	201.923	6.09913	16.7566	190.536	-17.739	5.20503	192.82	48.1161	79.6512	193.414	46.6488	107.608	155.536	56.6356	88.1356	
21	0.175	127.7	33.2854	92.3062	117.356	20.6618	65.2389	104.576	11.3589	38.6405	109.037	1.00028	18.7781	144.921	52.8947	18.2923	137.337	49.2047	-4.8829	132.636	31.3106	-31.9911	168.846	51.5318	15.2826	162.912	44.2137	-15.2642	159.397	25.367	-42.2882	187.418	34.8454	19.8957	184.245	22.0084	-1.36045	178.163	-3.8959	-17.1687	202.504	21.5304	33.6725	198.191	6.83463	14.7755	188.181	-15.3872	3.76866	187.172	50.3598	79.4989	190.985	46.0518	107.024	159.618	56.4366	91.6278	
22	0.183333	128.327	33.3853	91.8999	116.333	21.1494	67.7482	107.226	13.5011	35.6468	111.637	2.36056	14.6466	143.831	56.1907	18.5929	138.461	50.4592	-8.15054	135.874	39.141	-31.589	171.181	52.071	18.2044	167.837	47.0438	-13.4228	160.981	30.0601	-45.1414	187.962	36.2265	23.3389	183.746	24.051	-3.6825	178.849	-2.76645	-19.3418	198.976	23.7853	32.5261	200.457	7.19123	14.0674	185.675	-13.039	0.860848	187.708	51.6868	73.9703	188.609	45.779	108.026	158.243	56.3191	87.7096	
